<svg xmlns="http://www.w3.org/2000/svg" width="2154" height="594" viewBox="0 0 2154 594">
  <g id="social" transform="translate(643 2603)">
    <g id="gittea" transform="translate(80 -1561)">
      <circle id="Ellipse_2" data-name="Ellipse 2" cx="297" cy="297" r="297" transform="translate(-723 -1042)" fill="#f3c26b"/>
      <g id="Gitea" transform="translate(-640.576 -862.553)">
        <path id="Differenzmenge_1" data-name="Differenzmenge 1" d="M272.934,223.738h-108.6c-4.315-.464-9.129-2.415-14.307-5.8a89.159,89.159,0,0,1-14.613-12.385,177.015,177.015,0,0,1-24.329-32.04c-4.351-7.345-7.318-13.774-8.141-17.636a170.865,170.865,0,0,1-27.623-2.716,114.637,114.637,0,0,1-33.269-11.223,82.257,82.257,0,0,1-15.509-10.684,73.033,73.033,0,0,1-13.03-15.07A78.867,78.867,0,0,1,4.262,95.973a105.96,105.96,0,0,1-4.181-26.1,77.179,77.179,0,0,1,4.144-29.59A59.177,59.177,0,0,1,17.173,19.324a60.3,60.3,0,0,1,10.481-8.679A64.641,64.641,0,0,1,39.3,4.631,65.641,65.641,0,0,1,63.146,0h.166C69.475.017,75.438.464,80.7.858c4.02.3,7.813.585,10.989.619l10.1.56c52.184,2.9,80.929,4.493,113.74,4.506L215.59,69.4l9.473,4.706V6.5c30.958-.273,68.029-1.976,125.608-5.025,3.865.088,6.882,2.646,8.968,7.6,1.966,4.673,3.076,11.387,3.3,19.955a180.825,180.825,0,0,1-1.349,25.055c-1.072,9.265-2.733,19.219-4.937,29.585a393.755,393.755,0,0,1-19.121,63.289,281.014,281.014,0,0,1-13.424,28.97,167.057,167.057,0,0,1-15.493,24.03,80.919,80.919,0,0,1-17.183,16.724C285.276,220.908,279.054,223.28,272.934,223.738ZM191.557,63.456a5.448,5.448,0,0,0-4.935,3.088l-39.615,81.531a5.49,5.49,0,0,0,2.535,7.328l81.531,39.614a5.429,5.429,0,0,0,2.392.553,5.52,5.52,0,0,0,4.935-3.088l39.615-81.531a5.488,5.488,0,0,0-2.535-7.327L193.949,64.009a5.431,5.431,0,0,0-2.392-.553ZM68.35,27.618c-14.946,0-26.138,4.106-33.264,12.2-6.671,7.581-9.459,18.656-7.851,31.184,5.394,42.045,35.291,51.694,66.8,55.858C86.686,106.719,82.3,92.807,78.9,78.849c-3.784-15.531-6.347-31.322-8.309-51.2C69.84,27.629,69.085,27.618,68.35,27.618Z" transform="translate(6.051 33.618)" fill="#1c212b" stroke="#1c212b" stroke-width="1"/>
        <g id="layer3" transform="translate(177.687 107.622)">
          <g id="g4539">
            <circle id="path4606" cx="10.156" cy="10.156" r="10.156" transform="translate(21.796 20.781) rotate(-19.796)" fill="#1c212b" stroke="#1c212b" stroke-width="0.265"/>
            <circle id="path4606-3" cx="10.156" cy="10.156" r="10.156" transform="translate(0 65.99) rotate(-19.796)" fill="#1c212b" stroke="#1c212b" stroke-width="0.265"/>
            <circle id="path4606-1" cx="10.156" cy="10.156" r="10.156" transform="translate(35.846 82.085) rotate(-19.796)" fill="#1c212b" stroke="#1c212b" stroke-width="0.265"/>
            <rect id="rect4629-8" width="7.812" height="79.686" stroke-width="0.274" fill="#1c212b" stroke="#1c212b" transform="translate(43.177) rotate(26.024)"/>
            <path id="path4514" d="M76.558,68.116c37.929,18.694,38.037,11.99,14.3,61.112" transform="translate(-42.098 -41.281)" fill="#1c212b" stroke="#1c212b" stroke-width="2.68"/>
          </g>
        </g>
      </g>
    </g>
    <g id="linkedin" transform="translate(117 -1561)">
      <circle id="Ellipse_1" data-name="Ellipse 1" cx="297" cy="297" r="297" transform="translate(20 -1042)" fill="#f3c26b"/>
      <path id="iconmonstr-linkedin-3" d="M72.653,283.528H20.935V93.894H72.653ZM46.794,72.035a30.411,30.411,0,1,1,30.169-30.41,30.411,30.411,0,0,1-30.169,30.41ZM279.527,283.528H227.808v-96.61c0-58.062-68.958-53.666-68.958,0v96.61H107.132V93.894H158.85v30.428c24.066-44.581,120.676-47.874,120.676,42.685Z" transform="translate(176.886 -899.306)" fill="#1c212b"/>
    </g>
    <g id="wiki" transform="translate(790 -1477)">
      <circle id="Ellipse_3" data-name="Ellipse 3" cx="297" cy="297" r="297" transform="translate(127 -1126)" fill="#f3c26b"/>
      <g id="wikipedia-logo" transform="translate(225.798 -951.652)">
        <path id="Pfad_30" data-name="Pfad 30" d="M396.345,17.669l-79.186-.226c-.016,2.875-.024,6.32-.069,8.576,6.728.158,23.945,3.324,29.343,17.5l-75.85,175.07c-3.716-8.689-38.99-87.046-43.018-97.122l36.682-76.088C271.82,33.8,286.3,26.339,300.306,25.8l-.04-7.957-76.181-.069c-.182,2.018,0,6.259-.275,8.366,21.491.582,29.173,5.394,24.022,18.228-8.5,19.311-26.322,55.9-29.808,62.571-10.9-22.784-17.831-40.321-29.7-64.953-5.119-11.414,6.182-15.858,18.135-16.19v-8.01l-88.227-.271c.065,3.76-.085,5.867-.085,8.616,12.3.186,28.255,1.5,34.619,12.207,8.439,16.428,36.568,81.652,45.08,99.12-10.856,20.836-37.227,70.116-46.677,88.6C137.633,196.01,87.56,77.705,73.408,47.169,68.135,34.158,88.5,26.641,100.28,26.091l.077-8.685L0,17.4c.02,2.612.109,6.914.117,8.843,16.275-.15,40.062,26.577,46.855,43.2,29.29,67.973,59.515,135.55,88.663,203.58a87.648,87.648,0,0,0,9.223.032c19.073-39.031,41.36-80.047,61.484-119.522L257.111,273.11c.02.016,8.418.065,8.463.028C297.767,199.565,346,86.665,361.782,51.023,368.2,35.791,378.946,26.5,396.324,25.978l.129-7.909Z" fill="#1c212b"/>
      </g>
    </g>
  </g>
</svg>
