<svg xmlns="http://www.w3.org/2000/svg" width="594" height="594" viewBox="0 0 594 594">
  <g id="blog" transform="translate(-1668 2603)">
    <circle id="Ellipse_3" data-name="Ellipse 3" cx="297" cy="297" r="297" transform="translate(1668 -2603)" fill="#bf6165"/>
    <g id="writing" transform="translate(1851.835 -2445.115)">
      <path id="Pfad_7" data-name="Pfad 7" d="M449.654,158.022a17.149,17.149,0,0,0-22.92-1.174c-.972.792-.219.094-15.023,14.9l38.427,38.427,13.81-13.638a17.145,17.145,0,0,0,0-24.219Z" transform="translate(-176.686 -65.667)" fill="#343436"/>
      <path id="Pfad_8" data-name="Pfad 8" d="M256.069,274.462l-22.6,48.438a8.563,8.563,0,0,0,11.38,11.38l48.438-22.6c1.916-.894-3.885,4.535,67.829-66.283l-38.351-38.352C251.658,278.145,256.981,272.508,256.069,274.462Z" transform="translate(-99.846 -88.853)" fill="#343436"/>
      <path id="Pfad_9" data-name="Pfad 9" d="M207.864,233.344a25.625,25.625,0,0,1-7.184,5l-48.438,22.6A25.688,25.688,0,0,1,118.1,226.805l22.6-48.439a25.621,25.621,0,0,1,5.113-7.3l72.821-72.821V25.688A25.717,25.717,0,0,0,192.951,0H25.694A25.717,25.717,0,0,0,.006,25.688v240.9a25.717,25.717,0,0,0,25.688,25.688H192.951a25.717,25.717,0,0,0,25.688-25.688V222.7ZM45.674,55.372H173.543a8.563,8.563,0,1,1,0,17.125H45.674a8.563,8.563,0,0,1,0-17.125Zm0,45.667H146.142a8.563,8.563,0,0,1,0,17.125H45.674a8.563,8.563,0,1,1,0-17.125Zm-8.563,54.23a8.563,8.563,0,0,1,8.563-8.563h73.068a8.563,8.563,0,0,1,0,17.125H45.674A8.563,8.563,0,0,1,37.111,155.269Z" fill="#343436"/>
    </g>
  </g>
</svg>
