<svg xmlns="http://www.w3.org/2000/svg" width="594" height="594" viewBox="0 0 594 594">
  <g id="wiki" transform="translate(-127 1126)">
    <circle id="Ellipse_3" data-name="Ellipse 3" cx="297" cy="297" r="297" transform="translate(127 -1126)" fill="#bf6165"/>
    <g id="wikipedia-logo" transform="translate(225.798 -951.652)">
      <path id="Pfad_30" data-name="Pfad 30" d="M396.345,17.669l-79.186-.226c-.016,2.875-.024,6.32-.069,8.576,6.728.158,23.945,3.324,29.343,17.5l-75.85,175.07c-3.716-8.689-38.99-87.046-43.018-97.122l36.682-76.088C271.82,33.8,286.3,26.339,300.306,25.8l-.04-7.957-76.181-.069c-.182,2.018,0,6.259-.275,8.366,21.491.582,29.173,5.394,24.022,18.228-8.5,19.311-26.322,55.9-29.808,62.571-10.9-22.784-17.831-40.321-29.7-64.953-5.119-11.414,6.182-15.858,18.135-16.19v-8.01l-88.227-.271c.065,3.76-.085,5.867-.085,8.616,12.3.186,28.255,1.5,34.619,12.207,8.439,16.428,36.568,81.652,45.08,99.12-10.856,20.836-37.227,70.116-46.677,88.6C137.633,196.01,87.56,77.705,73.408,47.169,68.135,34.158,88.5,26.641,100.28,26.091l.077-8.685L0,17.4c.02,2.612.109,6.914.117,8.843,16.275-.15,40.062,26.577,46.855,43.2,29.29,67.973,59.515,135.55,88.663,203.58a87.648,87.648,0,0,0,9.223.032c19.073-39.031,41.36-80.047,61.484-119.522L257.111,273.11c.02.016,8.418.065,8.463.028C297.767,199.565,346,86.665,361.782,51.023,368.2,35.791,378.946,26.5,396.324,25.978l.129-7.909Z" fill="#343436"/>
    </g>
  </g>
</svg>
